<svg width="18" height="21" viewBox="0 0 18 21" fill="none" xmlns="http://www.w3.org/2000/svg">
<path fill-rule="evenodd" clip-rule="evenodd" d="M9.05587 0.888263C9.01877 0.962462 8.99195 1.03734 8.97364 1.11825C8.77859 1.98003 7.53241 7.26054 6.28198 7.26054C5.76295 7.26054 5.32426 6.25719 5.30735 5.02977C5.28326 3.32596 5.15 3.04987 3.51344 4.64324C2.58374 5.54841 1.82917 6.62583 1.32943 7.8233C-0.070487 11.1777 -0.491942 14.0849 1.59729 17.4542C1.98268 18.0757 2.4713 18.634 3.05592 19.0734C5.58643 20.975 8.24767 20.9541 11.2915 20.5C15.0889 19.9329 16.8143 17.3757 17.5959 14.511C17.9535 13.2004 17.8972 11.8078 17.4742 10.5168C15.5858 4.75404 11.2036 1.06638 10.5755 0.559925C10.5245 0.518835 10.4705 0.485259 10.412 0.455983L10.3883 0.444136C9.89769 0.198847 9.30116 0.397689 9.05587 0.888263V0.888263Z" fill="#F04C4C"/>
</svg>
